<svg width="71" height="84" viewBox="0 0 71 84" fill="none" xmlns="http://www.w3.org/2000/svg">
<path d="M71 47.6367C71 67.2428 55.1061 83.1367 35.5 83.1367C15.8939 83.1367 0 67.2428 0 47.6367C0 28.0306 15.8939 12.1367 35.5 12.1367C55.1061 12.1367 71 28.0306 71 47.6367Z" fill="url(#paint0_linear_7_7289)"/>
<g style="mix-blend-mode:multiply">
<path d="M71 47.6367C71 67.2428 55.1061 83.1367 35.5 83.1367C15.8939 83.1367 0 67.2428 0 47.6367C0 28.0306 15.8939 12.1367 35.5 12.1367C55.1061 12.1367 71 28.0306 71 47.6367Z" fill="url(#paint1_linear_7_7289)"/>
</g>
<g style="mix-blend-mode:multiply" opacity="0.8">
<path d="M71 47.6367C71 67.2428 55.1061 83.1367 35.5 83.1367C15.8939 83.1367 0 67.2428 0 47.6367C0 28.0306 15.8939 12.1367 35.5 12.1367C55.1061 12.1367 71 28.0306 71 47.6367Z" fill="url(#paint2_linear_7_7289)"/>
</g>
<g opacity="0.2">
<path d="M37.2743 15.4366C36.5059 15.4293 35.8319 15.1001 35.8459 14.7126C35.833 14.3032 36.4855 14.1271 37.2446 14.3042L41.8131 15.245C42.5946 15.396 42.581 15.5179 41.7635 15.5148L37.2743 15.4366Z" fill="#C0C0C0"/>
<path d="M34.1392 14.7363C34.152 15.1458 33.5128 15.4656 32.7221 15.4843L28.2324 15.6718C27.4417 15.6906 27.4329 15.5947 28.1836 15.4103L32.7192 14.3738C33.4923 14.1634 34.1264 14.3269 34.1392 14.7363Z" fill="#C0C0C0"/>
<path d="M39.7678 17.7846C39.067 17.4335 39.1389 17.1377 39.9564 17.1408L49.8998 17.2878C50.6681 17.2951 51.5875 17.8691 51.8768 18.5931L54.4459 24.4604C54.7576 25.1584 54.4624 25.449 53.7348 25.0761L39.7678 17.7846Z" fill="#C0C0C0"/>
<path d="M56.803 25.5887C57.1147 26.2867 57.9981 27.0086 58.7796 27.1597L62.2585 27.8306C63.0176 28.0077 63.1878 27.7035 62.5945 27.1743L55.2823 20.6226C54.7158 20.1152 54.4832 20.2798 54.7949 20.9778L56.803 25.5887Z" fill="#C0C0C0"/>
<path d="M59.2626 29.9924C58.857 29.3507 59.139 28.9162 59.9205 29.0673L64.3372 29.9726C65.1187 30.1237 65.8323 30.8842 65.9518 31.6468L67.6339 42.4187C67.7534 43.1812 67.5121 43.25 67.1065 42.6083L59.2626 29.9924Z" fill="#C0C0C0"/>
<path d="M37.4896 33.432C36.7477 33.7123 36.1363 33.257 36.1151 32.4861L35.9199 19.0285C35.8987 18.2576 36.462 17.9201 37.1629 18.2712L53.4153 26.7211C54.1161 27.0721 54.0662 27.6076 53.3199 27.8399L37.4896 33.432Z" fill="#C0C0C0"/>
<path d="M55.8763 45.7095C55.7725 46.4669 56.3747 47.0919 57.1654 47.0732L66.4168 46.9649C67.2075 46.9462 67.5031 46.3898 67.0975 45.7481L58.1483 31.3425C57.7159 30.6789 57.3272 30.7601 57.2501 31.5394L55.8763 45.7095Z" fill="#C0C0C0"/>
<path d="M52.9012 45.6719C53.5617 46.123 54.1562 45.8552 54.2333 45.076L55.6661 30.2006C55.7208 29.4474 55.1854 29.0098 54.4435 29.2901L38.5105 34.8426C37.7642 35.0749 37.7186 35.6583 38.3524 36.0875L52.9012 45.6719Z" fill="#C0C0C0"/>
<path d="M33.0851 33.4674C33.8262 33.7185 34.4299 33.2809 34.4087 32.51L34.1688 19.1045C34.1699 18.3076 33.5985 18.018 32.9146 18.3899L16.9367 27.2302C16.2527 27.6021 16.3234 28.1032 17.0646 28.3543L33.0851 33.4674Z" fill="#C0C0C0"/>
<path d="M16.7095 45.5289C16.8022 46.2696 17.396 46.5332 18.0488 46.0915L32.295 36.1906C32.9478 35.7489 32.8459 35.178 32.1047 34.927L16.0039 29.7482C15.2628 29.4971 14.7082 29.9305 14.8277 30.6931L16.7095 45.5289Z" fill="#C0C0C0"/>
<path d="M4.55139 47.6946C3.7607 47.7133 3.43983 47.1852 3.84731 46.4986L12.3869 31.89C12.772 31.2295 13.174 31.292 13.2711 32.0806L15.0868 46.1977C15.2064 46.9602 14.6203 47.5895 13.8296 47.6082L4.55139 47.6946Z" fill="#C0C0C0"/>
<path d="M3.17315 43.1994C3.06932 43.9567 3.32384 44.0317 3.70895 43.3713L11.2007 30.5659C11.5858 29.9054 11.2781 29.521 10.5006 29.6835L6.08571 30.6857C5.33499 30.8701 4.63704 31.6295 4.53321 32.3869L3.17315 43.1994Z" fill="#C0C0C0"/>
<path d="M15.8099 24.9353C15.5274 25.6354 15.8487 25.8979 16.5327 25.526L30.32 17.9097C31.004 17.5378 30.9284 17.2545 30.1377 17.2732L20.1668 17.6357C19.3761 17.6544 18.4907 18.2607 18.2083 18.9608L15.8099 24.9353Z" fill="#C0C0C0"/>
<path d="M11.5576 27.7105C12.3351 27.548 13.2073 26.7979 13.4897 26.0978L15.3636 21.4234C15.646 20.7234 15.4095 20.5744 14.8638 21.1036L7.75597 27.8396C7.16109 28.373 7.33491 28.648 8.11241 28.4855L11.5576 27.7105Z" fill="#C0C0C0"/>
<path d="M16.5311 67.059C15.7892 67.3393 15.2537 66.9017 15.3084 66.1485L16.7904 51.2689C16.8675 50.4897 17.462 50.222 18.1225 50.673L31.037 59.1808C30.7651 59.1379 30.4812 59.11 30.1904 59.0993L19.776 58.968C17.8683 58.9607 17.8366 59.2451 19.6605 59.5976L30.3221 61.7931C30.645 61.8685 30.9597 61.9164 31.2582 61.9387L16.5311 67.059Z" fill="#C0C0C0"/>
<path d="M13.7469 64.7838C13.6699 65.5631 13.2811 65.6443 12.8488 64.9807L3.85042 50.5792C3.44484 49.9375 3.74047 49.3812 4.53116 49.3624L13.8317 49.25C14.6224 49.2313 15.2246 49.8563 15.1208 50.6137L13.7469 64.7838Z" fill="#C0C0C0"/>
<path d="M34.8185 58.2887C34.8398 59.0596 34.2944 59.3232 33.6607 58.894L18.9244 49.1564C18.2907 48.7272 18.2739 48.0042 18.8999 47.5407L33.3519 37.4533C34.0047 37.0116 34.5225 37.2575 34.5438 38.0284L34.8185 58.2887Z" fill="#C0C0C0"/>
<path d="M35.0771 77.2946C35.0983 78.0655 34.535 78.4031 33.8342 78.052L17.5817 69.6021C16.8809 69.251 16.9084 68.7416 17.6771 68.4832L33.5386 62.9609C34.2582 62.7067 34.8919 63.1359 34.9131 63.9068L35.0771 77.2946Z" fill="#C0C0C0"/>
<path d="M6.63755 66.3767C5.85603 66.2256 5.14239 65.4651 5.02287 64.7025L3.34082 53.9306C3.2213 53.1681 3.46262 53.0993 3.8682 53.741L11.7345 66.3309C12.1401 66.9726 11.8581 67.407 11.0765 67.256L6.63755 66.3767Z" fill="#C0C0C0"/>
<path d="M21.1017 79.0833C20.3334 79.076 19.414 78.502 19.1247 77.778L16.5556 71.9107C16.2439 71.2127 16.5392 70.9221 17.2668 71.295L31.2829 78.5823C31.9837 78.9334 31.9118 79.2293 31.0943 79.2261L21.1017 79.0833Z" fill="#C0C0C0"/>
<path d="M8.40262 69.1488C7.80926 68.6196 7.97944 68.3154 8.73858 68.4925L12.2219 69.2113C13.0034 69.3624 13.8868 70.0844 14.1985 70.7823L16.2289 75.3672C16.5406 76.0652 16.3081 76.2298 15.7415 75.7224L8.40262 69.1488Z" fill="#C0C0C0"/>
<path d="M35.1515 81.6108C35.1643 82.0202 34.5118 82.1963 33.7527 82.0192L29.1842 81.0784C28.4027 80.9274 28.4163 80.8055 29.2338 80.8086L33.6963 80.8649C34.4914 80.8941 35.1654 81.2233 35.1515 81.6108Z" fill="#C0C0C0"/>
<path d="M40.2967 61.8572L55.0155 66.5489C55.7566 66.8 56.3112 66.3666 56.1917 65.604L54.3099 50.7682C54.2172 50.0275 53.6234 49.7639 52.9706 50.2056L40.1653 59.1509C40.4133 59.1168 40.6722 59.0959 40.9384 59.0896L51.3639 58.7128C53.2092 58.6691 53.2297 58.8928 51.4777 59.3231L40.8929 61.7421C40.6907 61.7917 40.4912 61.8299 40.2967 61.8572Z" fill="#C0C0C0"/>
<path d="M58.61 64.4331C58.2249 65.0936 57.823 65.031 57.7258 64.2424L55.9101 50.1254C55.7906 49.3628 56.3766 48.7336 57.1674 48.7149L66.4455 48.6285C67.2362 48.6097 67.5571 49.1379 67.1496 49.8244L58.61 64.4331Z" fill="#C0C0C0"/>
<path d="M38.0603 77.9594C37.3763 78.3313 36.8273 78.0156 36.8061 77.2447L36.611 63.7872C36.5897 63.0163 37.1934 62.5787 37.9346 62.8298L53.9327 67.969C54.6738 68.22 54.7446 68.7211 54.0606 69.093L38.0603 77.9594Z" fill="#C0C0C0"/>
<path d="M66.464 63.9363C66.3601 64.6937 65.6622 65.4532 64.9115 65.6375L60.501 66.6876C59.7235 66.8501 59.4158 66.4657 59.8233 65.7792L67.2926 52.9999C67.6777 52.3394 67.9323 52.4144 67.8284 53.1718L66.464 63.9363Z" fill="#C0C0C0"/>
<path d="M52.789 77.3625C52.5066 78.0626 51.6212 78.6689 50.8349 78.7356L40.8639 79.098C40.0732 79.1168 39.9977 78.8334 40.6817 78.4615L54.469 70.8452C55.153 70.4733 55.4742 70.7359 55.1918 71.4359L52.789 77.3625Z" fill="#C0C0C0"/>
<path d="M56.1333 75.2196C55.5875 75.7488 55.351 75.5998 55.6334 74.8997L57.5117 70.2733C57.7942 69.5732 58.6663 68.8231 59.4438 68.6606L62.889 67.8856C63.6665 67.7231 63.8403 67.9981 63.2455 68.5315L56.1333 75.2196Z" fill="#C0C0C0"/>
<path d="M38.2822 81.9973C37.5315 82.1817 36.8707 81.9962 36.8846 81.6087C36.8718 81.1993 37.511 80.8795 38.3017 80.8607L42.769 80.6993C43.5597 80.6805 43.5685 80.7764 42.8178 80.9608L38.2822 81.9973Z" fill="#C0C0C0"/>
<path d="M37.6943 58.8657C37.0415 59.3074 36.5237 59.0615 36.5024 58.2906L36.2053 38.0563C36.1841 37.2854 36.7294 37.0219 37.3632 37.4511L52.0994 47.1886C52.7331 47.6178 52.75 48.3408 52.1239 48.8044L37.6943 58.8657Z" fill="#C0C0C0"/>
<path d="M1.21663 49.4022C1.63655 49.3907 1.96622 50.0147 1.98745 50.7856L2.16436 55.1413C2.1856 55.9122 2.08731 55.9205 1.89628 55.1881L0.821585 50.7637C0.630551 50.0314 0.796711 49.4136 1.21663 49.4022Z" fill="#C0C0C0"/>
<path d="M69.8093 48.5848C70.2292 48.5733 70.4115 49.2098 70.2317 49.9495L69.2783 54.401C69.1254 55.1625 69.0003 55.1489 69.0014 54.352L69.0479 50.0016C69.0758 49.2265 69.4118 48.5702 69.8093 48.5848Z" fill="#C0C0C0"/>
<path d="M70.1754 45.5594C70.3665 46.2918 70.1779 46.9356 69.7804 46.921C69.3605 46.9324 69.0308 46.3084 69.0096 45.5375L68.8327 41.1819C68.8114 40.411 68.9097 40.4026 69.1008 41.135L70.1754 45.5594Z" fill="#C0C0C0"/>
<path d="M1.92691 46.3477C1.92137 47.0968 1.58541 47.7531 1.18786 47.7385C0.79031 47.7239 0.585697 47.1134 0.765438 46.3738L1.71883 41.9223C1.8718 41.1608 1.99686 41.1743 1.99572 41.9712L1.92691 46.3477Z" fill="#C0C0C0"/>
</g>
<path d="M37.0905 14.4121C36.326 14.4046 35.6554 14.0686 35.6692 13.6731C35.6565 13.2553 36.3057 13.0756 37.061 13.2563L41.6065 14.2165C42.3841 14.3707 42.3706 14.4951 41.5572 14.4919L37.0905 14.4121Z" fill="url(#paint3_linear_7_7289)"/>
<path d="M33.9711 13.6974C33.9839 14.1152 33.3479 14.4416 32.5611 14.4608L28.094 14.6521C27.3073 14.6712 27.2986 14.5734 28.0455 14.3852L32.5583 13.3273C33.3275 13.1126 33.9584 13.2795 33.9711 13.6974Z" fill="url(#paint4_linear_7_7289)"/>
<path d="M39.5715 16.8085C38.8742 16.4502 38.9457 16.1482 39.7591 16.1514L49.6526 16.3014C50.417 16.3088 51.3318 16.8947 51.6197 17.6336L54.1758 23.6219C54.486 24.3343 54.1922 24.6309 53.4683 24.2503L39.5715 16.8085Z" fill="url(#paint5_linear_7_7289)"/>
<path d="M56.521 24.7735C56.8312 25.4858 57.7102 26.2227 58.4878 26.3769L61.9492 27.0616C62.7045 27.2424 62.8738 26.9319 62.2834 26.3918L55.0081 19.7049C54.4443 19.1871 54.213 19.3551 54.5231 20.0675L56.521 24.7735Z" fill="url(#paint6_linear_7_7289)"/>
<path d="M58.9683 29.268C58.5647 28.613 58.8454 28.1696 59.623 28.3238L64.0174 29.2478C64.795 29.402 65.505 30.1781 65.6239 30.9564L67.2975 41.9504C67.4165 42.7287 67.1764 42.7989 66.7728 42.144L58.9683 29.268Z" fill="url(#paint7_linear_7_7289)"/>
<path d="M37.3047 32.7785C36.5665 33.0645 35.9583 32.5999 35.9371 31.8131L35.743 18.078C35.7218 17.2912 36.2823 16.9467 36.9796 17.3051L53.1504 25.9292C53.8477 26.2875 53.7981 26.834 53.0555 27.0711L37.3047 32.7785Z" fill="url(#paint8_linear_7_7289)"/>
<path d="M55.5991 45.3091C55.4958 46.0821 56.0949 46.7201 56.8816 46.7009L66.0866 46.5904C66.8733 46.5713 67.1674 46.0035 66.7639 45.3486L57.8596 30.6459C57.4294 29.9686 57.0426 30.0515 56.966 30.8468L55.5991 45.3091Z" fill="url(#paint9_linear_7_7289)"/>
<path d="M52.6389 45.2707C53.2961 45.7311 53.8876 45.4579 53.9643 44.6626L55.3899 29.4804C55.4443 28.7117 54.9116 28.2651 54.1734 28.5512L38.3205 34.2181C37.5779 34.4552 37.5326 35.0507 38.1631 35.4887L52.6389 45.2707Z" fill="url(#paint10_linear_7_7289)"/>
<path d="M32.9223 32.8146C33.6598 33.0709 34.2604 32.6243 34.2393 31.8375L34.0006 18.1556C34.0017 17.3422 33.4332 17.0466 32.7527 17.4262L16.8551 26.4488C16.1745 26.8284 16.2449 27.3398 16.9824 27.5961L32.9223 32.8146Z" fill="url(#paint11_linear_7_7289)"/>
<path d="M16.629 45.1248C16.7213 45.8808 17.3121 46.1498 17.9616 45.699L32.1362 35.594C32.7858 35.1432 32.6843 34.5605 31.9469 34.3043L15.927 29.0187C15.1896 28.7625 14.6378 29.2048 14.7567 29.9831L16.629 45.1248Z" fill="url(#paint12_linear_7_7289)"/>
<path d="M4.53204 47.3352C3.74532 47.3543 3.42606 46.8152 3.8315 46.1146L12.3282 31.2047C12.7113 30.5306 13.1113 30.5944 13.2079 31.3993L15.0146 45.8074C15.1335 46.5857 14.5503 47.2279 13.7636 47.247L4.53204 47.3352Z" fill="url(#paint13_linear_7_7289)"/>
<path d="M3.16072 42.7473C3.05741 43.5202 3.31065 43.5968 3.69383 42.9227L11.1479 29.8533C11.5311 29.1792 11.2249 28.7869 10.4513 28.9527L6.05865 29.9755C5.31169 30.1637 4.61725 30.9388 4.51395 31.7118L3.16072 42.7473Z" fill="url(#paint14_linear_7_7289)"/>
<path d="M15.7339 24.1066C15.4529 24.8211 15.7726 25.0891 16.4531 24.7095L30.1711 16.9362C30.8517 16.5566 30.7765 16.2674 29.9898 16.2865L20.0689 16.6565C19.2822 16.6756 18.4013 17.2944 18.1203 18.0089L15.7339 24.1066Z" fill="url(#paint15_linear_7_7289)"/>
<path d="M11.5031 26.939C12.2767 26.7731 13.1444 26.0076 13.4254 25.2931L15.2899 20.5223C15.5709 19.8078 15.3356 19.6558 14.7926 20.1959L7.72051 27.0708C7.12862 27.6152 7.30157 27.8959 8.07516 27.73L11.5031 26.939Z" fill="url(#paint16_linear_7_7289)"/>
<path d="M16.4515 67.0989C15.7133 67.3849 15.1806 66.9383 15.235 66.1696L16.7096 50.9832C16.7863 50.1879 17.3778 49.9146 18.0349 50.375L30.8845 59.0582C30.614 59.0144 30.3316 58.9859 30.0422 58.975L19.6802 58.841C17.782 58.8335 17.7505 59.1238 19.5652 59.4836L30.1732 61.7244C30.4946 61.8013 30.8077 61.8502 31.1047 61.8729L16.4515 67.0989Z" fill="url(#paint17_linear_7_7289)"/>
<path d="M13.6814 64.7767C13.6047 65.5721 13.2179 65.655 12.7877 64.9777L3.83459 50.2793C3.43105 49.6243 3.72519 49.0565 4.51191 49.0374L13.7657 48.9226C14.5525 48.9035 15.1516 49.5415 15.0483 50.3144L13.6814 64.7767Z" fill="url(#paint18_linear_7_7289)"/>
<path d="M34.6471 58.1477C34.6682 58.9345 34.1256 59.2035 33.4951 58.7655L18.8329 48.8272C18.2023 48.3891 18.1856 47.6512 18.8085 47.1781L33.1878 36.8827C33.8374 36.4319 34.3526 36.6828 34.3737 37.4696L34.6471 58.1477Z" fill="url(#paint19_linear_7_7289)"/>
<path d="M34.9043 77.5455C34.9255 78.3323 34.365 78.6768 33.6677 78.3185L17.4969 69.6943C16.7996 69.336 16.827 68.8161 17.5918 68.5524L33.3736 62.9162C34.0895 62.6568 34.7201 63.0949 34.7412 63.8817L34.9043 77.5455Z" fill="url(#paint20_linear_7_7289)"/>
<path d="M6.60771 66.4024C5.83012 66.2483 5.12006 65.4721 5.00115 64.6938L3.32755 53.6998C3.20863 52.9215 3.44873 52.8513 3.85228 53.5063L11.6791 66.3557C12.0826 67.0107 11.802 67.454 11.0244 67.2999L6.60771 66.4024Z" fill="url(#paint21_linear_7_7289)"/>
<path d="M20.9992 79.3711C20.2347 79.3636 19.32 78.7778 19.0321 78.0388L16.4759 72.0506C16.1658 71.3382 16.4596 71.0416 17.1835 71.4222L31.1292 78.8598C31.8265 79.2181 31.7549 79.52 30.9416 79.5168L20.9992 79.3711Z" fill="url(#paint22_linear_7_7289)"/>
<path d="M8.36391 69.2317C7.77353 68.6916 7.94286 68.3811 8.69819 68.5619L12.164 69.2956C12.9416 69.4497 13.8205 70.1866 14.1307 70.899L16.1509 75.5783C16.461 76.2907 16.2297 76.4587 15.6659 75.9409L8.36391 69.2317Z" fill="url(#paint23_linear_7_7289)"/>
<path d="M34.9783 81.9507C34.9911 82.3685 34.3419 82.5482 33.5866 82.3675L29.0411 81.4073C28.2635 81.2531 28.277 81.1287 29.0904 81.1319L33.5305 81.1894C34.3216 81.2192 34.9922 81.5552 34.9783 81.9507Z" fill="url(#paint24_linear_7_7289)"/>
<path d="M40.0977 61.7898L54.7425 66.5782C55.48 66.8345 56.0317 66.3922 55.9128 65.6139L54.0405 50.4721C53.9483 49.7161 53.3575 49.4471 52.708 49.8979L39.967 59.0277C40.2137 58.9929 40.4713 58.9716 40.7362 58.9651L51.1093 58.5806C52.9453 58.5359 52.9658 58.7642 51.2225 59.2034L40.6909 61.6723C40.4897 61.723 40.2913 61.7619 40.0977 61.7898Z" fill="url(#paint25_linear_7_7289)"/>
<path d="M58.319 64.4188C57.9359 65.0929 57.5359 65.0291 57.4393 64.2242L55.6326 49.8161C55.5137 49.0378 56.0969 48.3956 56.8836 48.3765L66.1152 48.2883C66.9019 48.2692 67.2211 48.8082 66.8157 49.5089L58.319 64.4188Z" fill="url(#paint26_linear_7_7289)"/>
<path d="M37.8726 78.224C37.192 78.6036 36.6458 78.2814 36.6247 77.4946L36.4305 63.7595C36.4094 62.9727 37.01 62.5262 37.7475 62.7824L53.6652 68.0276C54.4026 68.2838 54.473 68.7952 53.7925 69.1748L37.8726 78.224Z" fill="url(#paint27_linear_7_7289)"/>
<path d="M66.1335 63.9118C66.0302 64.6848 65.3358 65.4599 64.5888 65.6481L60.2005 66.7198C59.4269 66.8857 59.1208 66.4933 59.5262 65.7926L66.958 52.7498C67.3412 52.0757 67.5944 52.1523 67.4911 52.9253L66.1335 63.9118Z" fill="url(#paint28_linear_7_7289)"/>
<path d="M52.5272 77.6148C52.2462 78.3293 51.3653 78.9481 50.583 79.0162L40.6621 79.3861C39.8754 79.4052 39.8002 79.116 40.4808 78.7365L54.1988 70.9632C54.8794 70.5836 55.199 70.8515 54.918 71.566L52.5272 77.6148Z" fill="url(#paint29_linear_7_7289)"/>
<path d="M55.8547 75.4277C55.3117 75.9678 55.0764 75.8158 55.3574 75.1013L57.2263 70.3794C57.5073 69.6649 58.375 68.8993 59.1486 68.7335L62.5765 67.9425C63.3501 67.7766 63.5231 68.0573 62.9312 68.6017L55.8547 75.4277Z" fill="url(#paint30_linear_7_7289)"/>
<path d="M38.0934 82.3451C37.3464 82.5333 36.6889 82.3441 36.7028 81.9485C36.69 81.5307 37.3261 81.2043 38.1128 81.1851L42.5576 81.0204C43.3443 81.0012 43.3531 81.0991 42.6061 81.2872L38.0934 82.3451Z" fill="url(#paint31_linear_7_7289)"/>
<path d="M37.5084 58.7366C36.8589 59.1874 36.3437 58.9365 36.3225 58.1497L36.0269 37.4982C36.0058 36.7114 36.5484 36.4424 37.1789 36.8804L51.8411 46.8187C52.4717 47.2568 52.4884 47.9947 51.8655 48.4678L37.5084 58.7366Z" fill="url(#paint32_linear_7_7289)"/>
<path d="M1.21403 49.0779C1.63184 49.0662 1.95986 49.7031 1.98098 50.4899L2.157 54.9354C2.17813 55.7222 2.08034 55.7307 1.89026 54.9832L0.820973 50.4676C0.630898 49.7201 0.796224 49.0896 1.21403 49.0779Z" fill="url(#paint33_linear_7_7289)"/>
<path d="M69.462 48.2437C69.8798 48.232 70.0612 48.8816 69.8823 49.6365L68.9337 54.1798C68.7815 54.957 68.6571 54.9432 68.6582 54.1298L68.7044 49.6897C68.7322 48.8986 69.0665 48.2288 69.462 48.2437Z" fill="url(#paint34_linear_7_7289)"/>
<path d="M69.8263 45.1559C70.0164 45.9034 69.8288 46.5605 69.4333 46.5456C69.0155 46.5573 68.6874 45.9204 68.6663 45.1336L68.4903 40.6882C68.4692 39.9014 68.567 39.8929 68.757 40.6403L69.8263 45.1559Z" fill="url(#paint35_linear_7_7289)"/>
<path d="M1.92074 45.9605C1.91523 46.725 1.58096 47.3948 1.1854 47.3799C0.789855 47.3651 0.58627 46.742 0.765107 45.9871L1.71371 41.4438C1.86591 40.6666 1.99034 40.6804 1.9892 41.4938L1.92074 45.9605Z" fill="url(#paint36_linear_7_7289)"/>
<g filter="url(#filter0_i_7_7289)">
<path d="M37.0905 14.4121C36.326 14.4046 35.6554 14.0686 35.6692 13.6731C35.6565 13.2553 36.3057 13.0756 37.061 13.2563L41.6065 14.2165C42.3841 14.3707 42.3706 14.4951 41.5572 14.4919L37.0905 14.4121Z" fill="url(#paint37_linear_7_7289)"/>
<path d="M33.9711 13.6974C33.9839 14.1152 33.3479 14.4416 32.5611 14.4608L28.094 14.6521C27.3073 14.6712 27.2986 14.5734 28.0455 14.3852L32.5583 13.3273C33.3275 13.1126 33.9584 13.2795 33.9711 13.6974Z" fill="url(#paint38_linear_7_7289)"/>
<path d="M39.5715 16.8085C38.8742 16.4502 38.9457 16.1482 39.7591 16.1514L49.6526 16.3014C50.417 16.3088 51.3318 16.8947 51.6197 17.6336L54.1758 23.6219C54.486 24.3343 54.1922 24.6309 53.4683 24.2503L39.5715 16.8085Z" fill="url(#paint39_linear_7_7289)"/>
<path d="M56.521 24.7735C56.8312 25.4858 57.7102 26.2227 58.4878 26.3769L61.9492 27.0616C62.7045 27.2424 62.8738 26.9319 62.2834 26.3918L55.0081 19.7049C54.4443 19.1871 54.213 19.3551 54.5231 20.0675L56.521 24.7735Z" fill="url(#paint40_linear_7_7289)"/>
<path d="M58.9683 29.268C58.5647 28.613 58.8454 28.1696 59.623 28.3238L64.0174 29.2478C64.795 29.402 65.505 30.1781 65.6239 30.9564L67.2975 41.9504C67.4165 42.7287 67.1764 42.7989 66.7728 42.144L58.9683 29.268Z" fill="url(#paint41_linear_7_7289)"/>
<path d="M37.3047 32.7785C36.5665 33.0645 35.9583 32.5999 35.9371 31.8131L35.743 18.078C35.7218 17.2912 36.2823 16.9467 36.9796 17.3051L53.1504 25.9292C53.8477 26.2875 53.7981 26.834 53.0555 27.0711L37.3047 32.7785Z" fill="url(#paint42_linear_7_7289)"/>
<path d="M55.5991 45.3091C55.4958 46.0821 56.0949 46.7201 56.8816 46.7009L66.0866 46.5904C66.8733 46.5713 67.1674 46.0035 66.7639 45.3486L57.8596 30.6459C57.4294 29.9686 57.0426 30.0515 56.966 30.8468L55.5991 45.3091Z" fill="url(#paint43_linear_7_7289)"/>
<path d="M52.6389 45.2707C53.2961 45.7311 53.8876 45.4579 53.9643 44.6626L55.3899 29.4804C55.4443 28.7117 54.9116 28.2651 54.1734 28.5512L38.3205 34.2181C37.5779 34.4552 37.5326 35.0507 38.1631 35.4887L52.6389 45.2707Z" fill="url(#paint44_linear_7_7289)"/>
<path d="M32.9223 32.8146C33.6598 33.0709 34.2604 32.6243 34.2393 31.8375L34.0006 18.1556C34.0017 17.3422 33.4332 17.0466 32.7527 17.4262L16.8551 26.4488C16.1745 26.8284 16.2449 27.3398 16.9824 27.5961L32.9223 32.8146Z" fill="url(#paint45_linear_7_7289)"/>
<path d="M16.629 45.1248C16.7213 45.8808 17.3121 46.1498 17.9616 45.699L32.1362 35.594C32.7858 35.1432 32.6843 34.5605 31.9469 34.3043L15.927 29.0187C15.1896 28.7625 14.6378 29.2048 14.7567 29.9831L16.629 45.1248Z" fill="url(#paint46_linear_7_7289)"/>
<path d="M4.53204 47.3352C3.74532 47.3543 3.42606 46.8152 3.8315 46.1146L12.3282 31.2047C12.7113 30.5306 13.1113 30.5944 13.2079 31.3993L15.0146 45.8074C15.1335 46.5857 14.5503 47.2279 13.7636 47.247L4.53204 47.3352Z" fill="url(#paint47_linear_7_7289)"/>
<path d="M3.16072 42.7473C3.05741 43.5202 3.31065 43.5968 3.69383 42.9227L11.1479 29.8533C11.5311 29.1792 11.2249 28.7869 10.4513 28.9527L6.05865 29.9755C5.31169 30.1637 4.61725 30.9388 4.51395 31.7118L3.16072 42.7473Z" fill="url(#paint48_linear_7_7289)"/>
<path d="M15.7339 24.1066C15.4529 24.8211 15.7726 25.0891 16.4531 24.7095L30.1711 16.9362C30.8517 16.5566 30.7765 16.2674 29.9898 16.2865L20.0689 16.6565C19.2822 16.6756 18.4013 17.2944 18.1203 18.0089L15.7339 24.1066Z" fill="url(#paint49_linear_7_7289)"/>
<path d="M11.5031 26.939C12.2767 26.7731 13.1444 26.0076 13.4254 25.2931L15.2899 20.5223C15.5709 19.8078 15.3356 19.6558 14.7926 20.1959L7.72051 27.0708C7.12862 27.6152 7.30157 27.8959 8.07516 27.73L11.5031 26.939Z" fill="url(#paint50_linear_7_7289)"/>
<path d="M16.4515 67.0989C15.7133 67.3849 15.1806 66.9383 15.235 66.1696L16.7096 50.9832C16.7863 50.1879 17.3778 49.9146 18.0349 50.375L32.9841 60.0198C33.6875 60.4736 33.5488 61.541 32.7528 61.7997L16.4515 67.0989Z" fill="url(#paint51_linear_7_7289)"/>
<path d="M13.6814 64.7767C13.6047 65.5721 13.2179 65.655 12.7877 64.9777L3.83459 50.2793C3.43105 49.6243 3.72519 49.0565 4.51191 49.0374L13.7657 48.9226C14.5525 48.9035 15.1516 49.5415 15.0483 50.3144L13.6814 64.7767Z" fill="url(#paint52_linear_7_7289)"/>
<path d="M34.6471 58.1477C34.6682 58.9345 34.1256 59.2035 33.4951 58.7655L18.8329 48.8272C18.2023 48.3891 18.1856 47.6512 18.8085 47.1781L33.1878 36.8827C33.8374 36.4319 34.3526 36.6828 34.3737 37.4696L34.6471 58.1477Z" fill="url(#paint53_linear_7_7289)"/>
<path d="M34.9043 77.5455C34.9255 78.3323 34.365 78.6768 33.6677 78.3185L17.4969 69.6943C16.7996 69.336 16.827 68.8161 17.5918 68.5524L33.3736 62.9162C34.0895 62.6568 34.7201 63.0949 34.7412 63.8817L34.9043 77.5455Z" fill="url(#paint54_linear_7_7289)"/>
<path d="M6.60771 66.4024C5.83012 66.2483 5.12006 65.4721 5.00115 64.6938L3.32755 53.6998C3.20863 52.9215 3.44873 52.8513 3.85228 53.5063L11.6791 66.3557C12.0826 67.0107 11.802 67.454 11.0244 67.2999L6.60771 66.4024Z" fill="url(#paint55_linear_7_7289)"/>
<path d="M20.9992 79.3711C20.2347 79.3636 19.32 78.7778 19.0321 78.0388L16.4759 72.0506C16.1658 71.3382 16.4596 71.0416 17.1835 71.4222L31.1292 78.8598C31.8265 79.2181 31.7549 79.52 30.9416 79.5168L20.9992 79.3711Z" fill="url(#paint56_linear_7_7289)"/>
<path d="M8.36391 69.2317C7.77353 68.6916 7.94286 68.3811 8.69819 68.5619L12.164 69.2956C12.9416 69.4497 13.8205 70.1866 14.1307 70.899L16.1509 75.5783C16.461 76.2907 16.2297 76.4587 15.6659 75.9409L8.36391 69.2317Z" fill="url(#paint57_linear_7_7289)"/>
<path d="M34.9783 81.9507C34.9911 82.3685 34.3419 82.5482 33.5866 82.3675L29.0411 81.4073C28.2635 81.2531 28.277 81.1287 29.0904 81.1319L33.5305 81.1894C34.3216 81.2192 34.9922 81.5552 34.9783 81.9507Z" fill="url(#paint58_linear_7_7289)"/>
<path d="M54.7425 66.5782C55.48 66.8345 56.0317 66.3922 55.9128 65.6139L54.0405 50.4721C53.9483 49.7161 53.3575 49.4471 52.708 49.8979C48.6419 52.8116 41.5569 57.7351 38.3224 59.9776C37.6377 60.4522 37.8076 61.5075 38.6056 61.7465L54.7425 66.5782Z" fill="url(#paint59_linear_7_7289)"/>
<path d="M58.319 64.4188C57.9359 65.0929 57.5359 65.0291 57.4393 64.2242L55.6326 49.8161C55.5137 49.0378 56.0969 48.3956 56.8836 48.3765L66.1152 48.2883C66.9019 48.2692 67.2211 48.8082 66.8157 49.5089L58.319 64.4188Z" fill="url(#paint60_linear_7_7289)"/>
<path d="M37.8726 78.224C37.192 78.6036 36.6458 78.2814 36.6247 77.4946L36.4305 63.7595C36.4094 62.9727 37.01 62.5262 37.7475 62.7824L53.6652 68.0276C54.4026 68.2838 54.473 68.7952 53.7925 69.1748L37.8726 78.224Z" fill="url(#paint61_linear_7_7289)"/>
<path d="M66.1335 63.9118C66.0302 64.6848 65.3358 65.4599 64.5888 65.6481L60.2005 66.7198C59.4269 66.8857 59.1208 66.4933 59.5262 65.7926L66.958 52.7498C67.3412 52.0757 67.5944 52.1523 67.4911 52.9253L66.1335 63.9118Z" fill="url(#paint62_linear_7_7289)"/>
<path d="M52.5272 77.6148C52.2462 78.3293 51.3653 78.9481 50.583 79.0162L40.6621 79.3861C39.8754 79.4052 39.8002 79.116 40.4808 78.7365L54.1988 70.9632C54.8794 70.5836 55.199 70.8515 54.918 71.566L52.5272 77.6148Z" fill="url(#paint63_linear_7_7289)"/>
<path d="M55.8547 75.4277C55.3117 75.9678 55.0764 75.8158 55.3574 75.1013L57.2263 70.3794C57.5073 69.6649 58.375 68.8993 59.1486 68.7335L62.5765 67.9425C63.3501 67.7766 63.5231 68.0573 62.9312 68.6017L55.8547 75.4277Z" fill="url(#paint64_linear_7_7289)"/>
<path d="M38.0934 82.3451C37.3464 82.5333 36.6889 82.3441 36.7028 81.9485C36.69 81.5307 37.3261 81.2043 38.1128 81.1851L42.5576 81.0204C43.3443 81.0012 43.3531 81.0991 42.6061 81.2872L38.0934 82.3451Z" fill="url(#paint65_linear_7_7289)"/>
<path d="M37.5084 58.7366C36.8589 59.1874 36.3437 58.9365 36.3225 58.1497L36.0269 37.4982C36.0058 36.7114 36.5484 36.4424 37.1789 36.8804L51.8411 46.8187C52.4717 47.2568 52.4884 47.9947 51.8655 48.4678L37.5084 58.7366Z" fill="url(#paint66_linear_7_7289)"/>
<path d="M1.21403 49.0779C1.63184 49.0662 1.95986 49.7031 1.98098 50.4899L2.157 54.9354C2.17813 55.7222 2.08034 55.7307 1.89026 54.9832L0.820973 50.4676C0.630898 49.7201 0.796224 49.0896 1.21403 49.0779Z" fill="url(#paint67_linear_7_7289)"/>
<path d="M69.462 48.2437C69.8798 48.232 70.0612 48.8816 69.8823 49.6365L68.9337 54.1798C68.7815 54.957 68.6571 54.9432 68.6582 54.1298L68.7044 49.6897C68.7322 48.8986 69.0665 48.2288 69.462 48.2437Z" fill="url(#paint68_linear_7_7289)"/>
<path d="M69.8263 45.1559C70.0164 45.9034 69.8288 46.5605 69.4333 46.5456C69.0155 46.5573 68.6874 45.9204 68.6663 45.1336L68.4903 40.6882C68.4692 39.9014 68.567 39.8929 68.757 40.6403L69.8263 45.1559Z" fill="url(#paint69_linear_7_7289)"/>
<path d="M1.92074 45.9605C1.91523 46.725 1.58096 47.3948 1.1854 47.3799C0.789855 47.3651 0.58627 46.742 0.765107 45.9871L1.71371 41.4438C1.86591 40.6666 1.99034 40.6804 1.9892 41.4938L1.92074 45.9605Z" fill="url(#paint70_linear_7_7289)"/>
</g>
<g style="mix-blend-mode:multiply">
<path d="M54.1261 44.5391C54.0494 45.334 53.458 45.6071 52.8009 45.1469L38.3262 35.3704C37.6957 34.9326 37.7409 34.3375 38.4835 34.1006L54.3352 28.4368C55.0734 28.1509 55.6061 28.5972 55.5517 29.3655L54.1261 44.5391Z" fill="url(#paint71_linear_7_7289)"/>
<path d="M16.7936 45.0011C16.8859 45.7567 17.4766 46.0255 18.1261 45.575L32.2997 35.4756C32.9491 35.0251 32.8477 34.4428 32.1103 34.1867L16.0916 28.9041C15.3543 28.648 14.8025 29.0901 14.9215 29.8679L16.7936 45.0011Z" fill="url(#paint72_linear_7_7289)"/>
<path d="M33.6584 58.6341C34.2889 59.0719 34.8315 58.803 34.8103 58.0167L34.537 37.3502C34.5159 36.5639 34.0007 36.3131 33.3512 36.7637L18.9729 47.0532C18.35 47.5261 18.3668 48.2635 18.9973 48.7014L33.6584 58.6341Z" fill="url(#paint73_linear_7_7289)"/>
<path d="M37.6715 58.6052C37.022 59.0558 36.5068 58.805 36.4857 58.0186L36.1901 37.3788C36.1689 36.5924 36.7115 36.3235 37.342 36.7614L52.0031 46.6941C52.6336 47.1319 52.6504 47.8694 52.0275 48.3422L37.6715 58.6052Z" fill="url(#paint74_linear_7_7289)"/>
</g>
<g style="mix-blend-mode:lighten">
<path d="M54.1154 44.6854C54.0388 45.4806 53.4484 45.7538 52.7925 45.2935L38.3438 35.5132C37.7144 35.0752 37.7596 34.4799 38.5008 34.2429L54.3241 28.5769C55.061 28.2909 55.5927 28.7374 55.5384 29.506L54.1154 44.6854Z" fill="white"/>
<path d="M16.8498 45.1476C16.9419 45.9034 17.5316 46.1724 18.1799 45.7217L32.3281 35.6185C32.9764 35.1677 32.8752 34.5852 32.1391 34.329L16.1491 29.0444C15.4131 28.7882 14.8623 29.2304 14.981 30.0086L16.8498 45.1476Z" fill="white"/>
<path d="M33.6844 58.7858C34.3137 59.2238 34.8553 58.9548 34.8342 58.1681L34.5614 37.4938C34.5403 36.7071 34.026 36.4562 33.3777 36.907L19.0252 47.2004C18.4035 47.6735 18.4202 48.4113 19.0495 48.8493L33.6844 58.7858Z" fill="white"/>
<path d="M37.6903 58.7569C37.0419 59.2076 36.5277 58.9567 36.5066 58.1701L36.2115 37.5223C36.1904 36.7356 36.732 36.4667 37.3614 36.9047L51.9962 46.8412C52.6256 47.2792 52.6423 48.0169 52.0205 48.49L37.6903 58.7569Z" fill="white"/>
</g>
<mask id="mask0_7_7289" style="mask-type:alpha" maskUnits="userSpaceOnUse" x="14" y="28" width="42" height="31">
<g opacity="0.3">
<path d="M54.1154 44.6854C54.0388 45.4806 53.4484 45.7538 52.7925 45.2935L38.3438 35.5132C37.7144 35.0752 37.7596 34.4799 38.5008 34.2429L54.3241 28.5769C55.061 28.2909 55.5927 28.7374 55.5384 29.506L54.1154 44.6854Z" fill="url(#paint75_linear_7_7289)"/>
<path d="M16.8498 45.1476C16.9419 45.9034 17.5316 46.1724 18.1799 45.7217L32.3281 35.6185C32.9764 35.1677 32.8752 34.5852 32.1391 34.329L16.1491 29.0444C15.4131 28.7882 14.8623 29.2304 14.981 30.0086L16.8498 45.1476Z" fill="url(#paint76_linear_7_7289)"/>
<path d="M33.6844 58.7858C34.3137 59.2238 34.8553 58.9548 34.8342 58.1681L34.5614 37.4938C34.5403 36.7071 34.026 36.4562 33.3777 36.907L19.0252 47.2004C18.4035 47.6735 18.4202 48.4113 19.0495 48.8493L33.6844 58.7858Z" fill="url(#paint77_linear_7_7289)"/>
<path d="M37.6903 58.7569C37.0419 59.2076 36.5277 58.9567 36.5066 58.1701L36.2115 37.5223C36.1904 36.7356 36.732 36.4667 37.3614 36.9047L51.9962 46.8412C52.6256 47.2792 52.6423 48.0169 52.0205 48.49L37.6903 58.7569Z" fill="url(#paint78_linear_7_7289)"/>
</g>
</mask>
<g mask="url(#mask0_7_7289)">
<path d="M31.7107 50.8843C31.4699 51.4772 30.7942 51.7626 30.2014 51.5219C29.6086 51.2811 29.3232 50.6054 29.5639 50.0126C29.8046 49.4198 30.4803 49.1344 31.0731 49.3751C31.666 49.6158 31.9514 50.2915 31.7107 50.8843Z" fill="#6014B2"/>
<path d="M40.9787 50.8843C40.738 51.4772 40.0623 51.7626 39.4695 51.5219C38.8766 51.2811 38.5912 50.6054 38.8319 50.0126C39.0727 49.4198 39.7484 49.1344 40.3412 49.3751C40.934 49.6158 41.2194 50.2915 40.9787 50.8843Z" fill="#1742EB"/>
</g>
<defs>
<filter id="filter0_i_7_7289" x="-0.16757" y="13.1863" width="70.1185" height="70.1185" filterUnits="userSpaceOnUse" color-interpolation-filters="sRGB">
<feFlood flood-opacity="0" result="BackgroundImageFix"/>
<feBlend mode="normal" in="SourceGraphic" in2="BackgroundImageFix" result="shape"/>
<feColorMatrix in="SourceAlpha" type="matrix" values="0 0 0 0 0 0 0 0 0 0 0 0 0 0 0 0 0 0 127 0" result="hardAlpha"/>
<feOffset dx="-1.73455" dy="1.73455"/>
<feGaussianBlur stdDeviation="0.433639"/>
<feComposite in2="hardAlpha" operator="arithmetic" k2="-1" k3="1"/>
<feColorMatrix type="matrix" values="0 0 0 0 1 0 0 0 0 1 0 0 0 0 1 0 0 0 0.2 0"/>
<feBlend mode="normal" in2="shape" result="effect1_innerShadow_7_7289"/>
</filter>
<linearGradient id="paint0_linear_7_7289" x1="5.37972" y1="42.7601" x2="40.3412" y2="4.85947" gradientUnits="userSpaceOnUse">
<stop stop-color="#E84ECF"/>
<stop offset="0.347135" stop-color="#483EDA"/>
<stop offset="1" stop-color="#15D8F9"/>
</linearGradient>
<linearGradient id="paint1_linear_7_7289" x1="5.37972" y1="42.7601" x2="40.3412" y2="4.85947" gradientUnits="userSpaceOnUse">
<stop stop-color="#E84ECF"/>
<stop offset="0.347135" stop-color="#483EDA"/>
<stop offset="1" stop-color="#15D8F9"/>
</linearGradient>
<linearGradient id="paint2_linear_7_7289" x1="32.4769" y1="81.8411" x2="32.736" y2="64.4798" gradientUnits="userSpaceOnUse">
<stop/>
<stop offset="1" stop-opacity="0"/>
</linearGradient>
<linearGradient id="paint3_linear_7_7289" x1="5.94693" y1="43.0554" x2="40.0473" y2="6.08827" gradientUnits="userSpaceOnUse">
<stop stop-color="#E84ECF"/>
<stop offset="0.347135" stop-color="#483EDA"/>
<stop offset="1" stop-color="#15D8F9"/>
</linearGradient>
<linearGradient id="paint4_linear_7_7289" x1="5.94693" y1="43.0554" x2="40.0473" y2="6.08827" gradientUnits="userSpaceOnUse">
<stop stop-color="#E84ECF"/>
<stop offset="0.347135" stop-color="#483EDA"/>
<stop offset="1" stop-color="#15D8F9"/>
</linearGradient>
<linearGradient id="paint5_linear_7_7289" x1="5.94693" y1="43.0554" x2="40.0473" y2="6.08827" gradientUnits="userSpaceOnUse">
<stop stop-color="#E84ECF"/>
<stop offset="0.347135" stop-color="#483EDA"/>
<stop offset="1" stop-color="#15D8F9"/>
</linearGradient>
<linearGradient id="paint6_linear_7_7289" x1="5.94693" y1="43.0554" x2="40.0473" y2="6.08827" gradientUnits="userSpaceOnUse">
<stop stop-color="#E84ECF"/>
<stop offset="0.347135" stop-color="#483EDA"/>
<stop offset="1" stop-color="#15D8F9"/>
</linearGradient>
<linearGradient id="paint7_linear_7_7289" x1="5.94693" y1="43.0554" x2="40.0473" y2="6.08827" gradientUnits="userSpaceOnUse">
<stop stop-color="#E84ECF"/>
<stop offset="0.347135" stop-color="#483EDA"/>
<stop offset="1" stop-color="#15D8F9"/>
</linearGradient>
<linearGradient id="paint8_linear_7_7289" x1="5.94693" y1="43.0554" x2="40.0473" y2="6.08827" gradientUnits="userSpaceOnUse">
<stop stop-color="#E84ECF"/>
<stop offset="0.347135" stop-color="#483EDA"/>
<stop offset="1" stop-color="#15D8F9"/>
</linearGradient>
<linearGradient id="paint9_linear_7_7289" x1="5.94693" y1="43.0554" x2="40.0473" y2="6.08827" gradientUnits="userSpaceOnUse">
<stop stop-color="#E84ECF"/>
<stop offset="0.347135" stop-color="#483EDA"/>
<stop offset="1" stop-color="#15D8F9"/>
</linearGradient>
<linearGradient id="paint10_linear_7_7289" x1="5.94693" y1="43.0554" x2="40.0473" y2="6.08827" gradientUnits="userSpaceOnUse">
<stop stop-color="#E84ECF"/>
<stop offset="0.347135" stop-color="#483EDA"/>
<stop offset="1" stop-color="#15D8F9"/>
</linearGradient>
<linearGradient id="paint11_linear_7_7289" x1="5.94693" y1="43.0554" x2="40.0473" y2="6.08827" gradientUnits="userSpaceOnUse">
<stop stop-color="#E84ECF"/>
<stop offset="0.347135" stop-color="#483EDA"/>
<stop offset="1" stop-color="#15D8F9"/>
</linearGradient>
<linearGradient id="paint12_linear_7_7289" x1="5.94693" y1="43.0554" x2="40.0473" y2="6.08827" gradientUnits="userSpaceOnUse">
<stop stop-color="#E84ECF"/>
<stop offset="0.347135" stop-color="#483EDA"/>
<stop offset="1" stop-color="#15D8F9"/>
</linearGradient>
<linearGradient id="paint13_linear_7_7289" x1="5.94693" y1="43.0554" x2="40.0473" y2="6.08827" gradientUnits="userSpaceOnUse">
<stop stop-color="#E84ECF"/>
<stop offset="0.347135" stop-color="#483EDA"/>
<stop offset="1" stop-color="#15D8F9"/>
</linearGradient>
<linearGradient id="paint14_linear_7_7289" x1="5.94693" y1="43.0554" x2="40.0473" y2="6.08827" gradientUnits="userSpaceOnUse">
<stop stop-color="#E84ECF"/>
<stop offset="0.347135" stop-color="#483EDA"/>
<stop offset="1" stop-color="#15D8F9"/>
</linearGradient>
<linearGradient id="paint15_linear_7_7289" x1="5.94693" y1="43.0554" x2="40.0473" y2="6.08827" gradientUnits="userSpaceOnUse">
<stop stop-color="#E84ECF"/>
<stop offset="0.347135" stop-color="#483EDA"/>
<stop offset="1" stop-color="#15D8F9"/>
</linearGradient>
<linearGradient id="paint16_linear_7_7289" x1="5.94693" y1="43.0554" x2="40.0473" y2="6.08827" gradientUnits="userSpaceOnUse">
<stop stop-color="#E84ECF"/>
<stop offset="0.347135" stop-color="#483EDA"/>
<stop offset="1" stop-color="#15D8F9"/>
</linearGradient>
<linearGradient id="paint17_linear_7_7289" x1="5.94693" y1="43.0554" x2="40.0473" y2="6.08827" gradientUnits="userSpaceOnUse">
<stop stop-color="#E84ECF"/>
<stop offset="0.347135" stop-color="#483EDA"/>
<stop offset="1" stop-color="#15D8F9"/>
</linearGradient>
<linearGradient id="paint18_linear_7_7289" x1="5.94693" y1="43.0554" x2="40.0473" y2="6.08827" gradientUnits="userSpaceOnUse">
<stop stop-color="#E84ECF"/>
<stop offset="0.347135" stop-color="#483EDA"/>
<stop offset="1" stop-color="#15D8F9"/>
</linearGradient>
<linearGradient id="paint19_linear_7_7289" x1="5.94693" y1="43.0554" x2="40.0473" y2="6.08827" gradientUnits="userSpaceOnUse">
<stop stop-color="#E84ECF"/>
<stop offset="0.347135" stop-color="#483EDA"/>
<stop offset="1" stop-color="#15D8F9"/>
</linearGradient>
<linearGradient id="paint20_linear_7_7289" x1="5.94693" y1="43.0554" x2="40.0473" y2="6.08827" gradientUnits="userSpaceOnUse">
<stop stop-color="#E84ECF"/>
<stop offset="0.347135" stop-color="#483EDA"/>
<stop offset="1" stop-color="#15D8F9"/>
</linearGradient>
<linearGradient id="paint21_linear_7_7289" x1="5.94693" y1="43.0554" x2="40.0473" y2="6.08827" gradientUnits="userSpaceOnUse">
<stop stop-color="#E84ECF"/>
<stop offset="0.347135" stop-color="#483EDA"/>
<stop offset="1" stop-color="#15D8F9"/>
</linearGradient>
<linearGradient id="paint22_linear_7_7289" x1="5.94693" y1="43.0554" x2="40.0473" y2="6.08827" gradientUnits="userSpaceOnUse">
<stop stop-color="#E84ECF"/>
<stop offset="0.347135" stop-color="#483EDA"/>
<stop offset="1" stop-color="#15D8F9"/>
</linearGradient>
<linearGradient id="paint23_linear_7_7289" x1="5.94693" y1="43.0554" x2="40.0473" y2="6.08827" gradientUnits="userSpaceOnUse">
<stop stop-color="#E84ECF"/>
<stop offset="0.347135" stop-color="#483EDA"/>
<stop offset="1" stop-color="#15D8F9"/>
</linearGradient>
<linearGradient id="paint24_linear_7_7289" x1="5.94693" y1="43.0554" x2="40.0473" y2="6.08827" gradientUnits="userSpaceOnUse">
<stop stop-color="#E84ECF"/>
<stop offset="0.347135" stop-color="#483EDA"/>
<stop offset="1" stop-color="#15D8F9"/>
</linearGradient>
<linearGradient id="paint25_linear_7_7289" x1="5.94693" y1="43.0554" x2="40.0473" y2="6.08827" gradientUnits="userSpaceOnUse">
<stop stop-color="#E84ECF"/>
<stop offset="0.347135" stop-color="#483EDA"/>
<stop offset="1" stop-color="#15D8F9"/>
</linearGradient>
<linearGradient id="paint26_linear_7_7289" x1="5.94693" y1="43.0554" x2="40.0473" y2="6.08827" gradientUnits="userSpaceOnUse">
<stop stop-color="#E84ECF"/>
<stop offset="0.347135" stop-color="#483EDA"/>
<stop offset="1" stop-color="#15D8F9"/>
</linearGradient>
<linearGradient id="paint27_linear_7_7289" x1="5.94693" y1="43.0554" x2="40.0473" y2="6.08827" gradientUnits="userSpaceOnUse">
<stop stop-color="#E84ECF"/>
<stop offset="0.347135" stop-color="#483EDA"/>
<stop offset="1" stop-color="#15D8F9"/>
</linearGradient>
<linearGradient id="paint28_linear_7_7289" x1="5.94693" y1="43.0554" x2="40.0473" y2="6.08827" gradientUnits="userSpaceOnUse">
<stop stop-color="#E84ECF"/>
<stop offset="0.347135" stop-color="#483EDA"/>
<stop offset="1" stop-color="#15D8F9"/>
</linearGradient>
<linearGradient id="paint29_linear_7_7289" x1="5.94693" y1="43.0554" x2="40.0473" y2="6.08827" gradientUnits="userSpaceOnUse">
<stop stop-color="#E84ECF"/>
<stop offset="0.347135" stop-color="#483EDA"/>
<stop offset="1" stop-color="#15D8F9"/>
</linearGradient>
<linearGradient id="paint30_linear_7_7289" x1="5.94693" y1="43.0554" x2="40.0473" y2="6.08827" gradientUnits="userSpaceOnUse">
<stop stop-color="#E84ECF"/>
<stop offset="0.347135" stop-color="#483EDA"/>
<stop offset="1" stop-color="#15D8F9"/>
</linearGradient>
<linearGradient id="paint31_linear_7_7289" x1="5.94693" y1="43.0554" x2="40.0473" y2="6.08827" gradientUnits="userSpaceOnUse">
<stop stop-color="#E84ECF"/>
<stop offset="0.347135" stop-color="#483EDA"/>
<stop offset="1" stop-color="#15D8F9"/>
</linearGradient>
<linearGradient id="paint32_linear_7_7289" x1="5.94693" y1="43.0554" x2="40.0473" y2="6.08827" gradientUnits="userSpaceOnUse">
<stop stop-color="#E84ECF"/>
<stop offset="0.347135" stop-color="#483EDA"/>
<stop offset="1" stop-color="#15D8F9"/>
</linearGradient>
<linearGradient id="paint33_linear_7_7289" x1="5.94693" y1="43.0554" x2="40.0473" y2="6.08827" gradientUnits="userSpaceOnUse">
<stop stop-color="#E84ECF"/>
<stop offset="0.347135" stop-color="#483EDA"/>
<stop offset="1" stop-color="#15D8F9"/>
</linearGradient>
<linearGradient id="paint34_linear_7_7289" x1="5.94693" y1="43.0554" x2="40.0473" y2="6.08827" gradientUnits="userSpaceOnUse">
<stop stop-color="#E84ECF"/>
<stop offset="0.347135" stop-color="#483EDA"/>
<stop offset="1" stop-color="#15D8F9"/>
</linearGradient>
<linearGradient id="paint35_linear_7_7289" x1="5.94693" y1="43.0554" x2="40.0473" y2="6.08827" gradientUnits="userSpaceOnUse">
<stop stop-color="#E84ECF"/>
<stop offset="0.347135" stop-color="#483EDA"/>
<stop offset="1" stop-color="#15D8F9"/>
</linearGradient>
<linearGradient id="paint36_linear_7_7289" x1="5.94693" y1="43.0554" x2="40.0473" y2="6.08827" gradientUnits="userSpaceOnUse">
<stop stop-color="#E84ECF"/>
<stop offset="0.347135" stop-color="#483EDA"/>
<stop offset="1" stop-color="#15D8F9"/>
</linearGradient>
<linearGradient id="paint37_linear_7_7289" x1="5.94693" y1="43.0554" x2="40.0473" y2="6.08827" gradientUnits="userSpaceOnUse">
<stop stop-color="#E84ECF"/>
<stop offset="0.347135" stop-color="#483EDA"/>
<stop offset="1" stop-color="#15D8F9"/>
</linearGradient>
<linearGradient id="paint38_linear_7_7289" x1="5.94693" y1="43.0554" x2="40.0473" y2="6.08827" gradientUnits="userSpaceOnUse">
<stop stop-color="#E84ECF"/>
<stop offset="0.347135" stop-color="#483EDA"/>
<stop offset="1" stop-color="#15D8F9"/>
</linearGradient>
<linearGradient id="paint39_linear_7_7289" x1="5.94693" y1="43.0554" x2="40.0473" y2="6.08827" gradientUnits="userSpaceOnUse">
<stop stop-color="#E84ECF"/>
<stop offset="0.347135" stop-color="#483EDA"/>
<stop offset="1" stop-color="#15D8F9"/>
</linearGradient>
<linearGradient id="paint40_linear_7_7289" x1="5.94693" y1="43.0554" x2="40.0473" y2="6.08827" gradientUnits="userSpaceOnUse">
<stop stop-color="#E84ECF"/>
<stop offset="0.347135" stop-color="#483EDA"/>
<stop offset="1" stop-color="#15D8F9"/>
</linearGradient>
<linearGradient id="paint41_linear_7_7289" x1="5.94693" y1="43.0554" x2="40.0473" y2="6.08827" gradientUnits="userSpaceOnUse">
<stop stop-color="#E84ECF"/>
<stop offset="0.347135" stop-color="#483EDA"/>
<stop offset="1" stop-color="#15D8F9"/>
</linearGradient>
<linearGradient id="paint42_linear_7_7289" x1="5.94693" y1="43.0554" x2="40.0473" y2="6.08827" gradientUnits="userSpaceOnUse">
<stop stop-color="#E84ECF"/>
<stop offset="0.347135" stop-color="#483EDA"/>
<stop offset="1" stop-color="#15D8F9"/>
</linearGradient>
<linearGradient id="paint43_linear_7_7289" x1="5.94693" y1="43.0554" x2="40.0473" y2="6.08827" gradientUnits="userSpaceOnUse">
<stop stop-color="#E84ECF"/>
<stop offset="0.347135" stop-color="#483EDA"/>
<stop offset="1" stop-color="#15D8F9"/>
</linearGradient>
<linearGradient id="paint44_linear_7_7289" x1="5.94693" y1="43.0554" x2="40.0473" y2="6.08827" gradientUnits="userSpaceOnUse">
<stop stop-color="#E84ECF"/>
<stop offset="0.347135" stop-color="#483EDA"/>
<stop offset="1" stop-color="#15D8F9"/>
</linearGradient>
<linearGradient id="paint45_linear_7_7289" x1="5.94693" y1="43.0554" x2="40.0473" y2="6.08827" gradientUnits="userSpaceOnUse">
<stop stop-color="#E84ECF"/>
<stop offset="0.347135" stop-color="#483EDA"/>
<stop offset="1" stop-color="#15D8F9"/>
</linearGradient>
<linearGradient id="paint46_linear_7_7289" x1="5.94693" y1="43.0554" x2="40.0473" y2="6.08827" gradientUnits="userSpaceOnUse">
<stop stop-color="#E84ECF"/>
<stop offset="0.347135" stop-color="#483EDA"/>
<stop offset="1" stop-color="#15D8F9"/>
</linearGradient>
<linearGradient id="paint47_linear_7_7289" x1="5.94693" y1="43.0554" x2="40.0473" y2="6.08827" gradientUnits="userSpaceOnUse">
<stop stop-color="#E84ECF"/>
<stop offset="0.347135" stop-color="#483EDA"/>
<stop offset="1" stop-color="#15D8F9"/>
</linearGradient>
<linearGradient id="paint48_linear_7_7289" x1="5.94693" y1="43.0554" x2="40.0473" y2="6.08827" gradientUnits="userSpaceOnUse">
<stop stop-color="#E84ECF"/>
<stop offset="0.347135" stop-color="#483EDA"/>
<stop offset="1" stop-color="#15D8F9"/>
</linearGradient>
<linearGradient id="paint49_linear_7_7289" x1="5.94693" y1="43.0554" x2="40.0473" y2="6.08827" gradientUnits="userSpaceOnUse">
<stop stop-color="#E84ECF"/>
<stop offset="0.347135" stop-color="#483EDA"/>
<stop offset="1" stop-color="#15D8F9"/>
</linearGradient>
<linearGradient id="paint50_linear_7_7289" x1="5.94693" y1="43.0554" x2="40.0473" y2="6.08827" gradientUnits="userSpaceOnUse">
<stop stop-color="#E84ECF"/>
<stop offset="0.347135" stop-color="#483EDA"/>
<stop offset="1" stop-color="#15D8F9"/>
</linearGradient>
<linearGradient id="paint51_linear_7_7289" x1="5.94693" y1="43.0554" x2="40.0473" y2="6.08827" gradientUnits="userSpaceOnUse">
<stop stop-color="#E84ECF"/>
<stop offset="0.347135" stop-color="#483EDA"/>
<stop offset="1" stop-color="#15D8F9"/>
</linearGradient>
<linearGradient id="paint52_linear_7_7289" x1="5.94693" y1="43.0554" x2="40.0473" y2="6.08827" gradientUnits="userSpaceOnUse">
<stop stop-color="#E84ECF"/>
<stop offset="0.347135" stop-color="#483EDA"/>
<stop offset="1" stop-color="#15D8F9"/>
</linearGradient>
<linearGradient id="paint53_linear_7_7289" x1="5.94693" y1="43.0554" x2="40.0473" y2="6.08827" gradientUnits="userSpaceOnUse">
<stop stop-color="#E84ECF"/>
<stop offset="0.347135" stop-color="#483EDA"/>
<stop offset="1" stop-color="#15D8F9"/>
</linearGradient>
<linearGradient id="paint54_linear_7_7289" x1="5.94693" y1="43.0554" x2="40.0473" y2="6.08827" gradientUnits="userSpaceOnUse">
<stop stop-color="#E84ECF"/>
<stop offset="0.347135" stop-color="#483EDA"/>
<stop offset="1" stop-color="#15D8F9"/>
</linearGradient>
<linearGradient id="paint55_linear_7_7289" x1="5.94693" y1="43.0554" x2="40.0473" y2="6.08827" gradientUnits="userSpaceOnUse">
<stop stop-color="#E84ECF"/>
<stop offset="0.347135" stop-color="#483EDA"/>
<stop offset="1" stop-color="#15D8F9"/>
</linearGradient>
<linearGradient id="paint56_linear_7_7289" x1="5.94693" y1="43.0554" x2="40.0473" y2="6.08827" gradientUnits="userSpaceOnUse">
<stop stop-color="#E84ECF"/>
<stop offset="0.347135" stop-color="#483EDA"/>
<stop offset="1" stop-color="#15D8F9"/>
</linearGradient>
<linearGradient id="paint57_linear_7_7289" x1="5.94693" y1="43.0554" x2="40.0473" y2="6.08827" gradientUnits="userSpaceOnUse">
<stop stop-color="#E84ECF"/>
<stop offset="0.347135" stop-color="#483EDA"/>
<stop offset="1" stop-color="#15D8F9"/>
</linearGradient>
<linearGradient id="paint58_linear_7_7289" x1="5.94693" y1="43.0554" x2="40.0473" y2="6.08827" gradientUnits="userSpaceOnUse">
<stop stop-color="#E84ECF"/>
<stop offset="0.347135" stop-color="#483EDA"/>
<stop offset="1" stop-color="#15D8F9"/>
</linearGradient>
<linearGradient id="paint59_linear_7_7289" x1="5.94693" y1="43.0554" x2="40.0473" y2="6.08827" gradientUnits="userSpaceOnUse">
<stop stop-color="#E84ECF"/>
<stop offset="0.347135" stop-color="#483EDA"/>
<stop offset="1" stop-color="#15D8F9"/>
</linearGradient>
<linearGradient id="paint60_linear_7_7289" x1="5.94693" y1="43.0554" x2="40.0473" y2="6.08827" gradientUnits="userSpaceOnUse">
<stop stop-color="#E84ECF"/>
<stop offset="0.347135" stop-color="#483EDA"/>
<stop offset="1" stop-color="#15D8F9"/>
</linearGradient>
<linearGradient id="paint61_linear_7_7289" x1="5.94693" y1="43.0554" x2="40.0473" y2="6.08827" gradientUnits="userSpaceOnUse">
<stop stop-color="#E84ECF"/>
<stop offset="0.347135" stop-color="#483EDA"/>
<stop offset="1" stop-color="#15D8F9"/>
</linearGradient>
<linearGradient id="paint62_linear_7_7289" x1="5.94693" y1="43.0554" x2="40.0473" y2="6.08827" gradientUnits="userSpaceOnUse">
<stop stop-color="#E84ECF"/>
<stop offset="0.347135" stop-color="#483EDA"/>
<stop offset="1" stop-color="#15D8F9"/>
</linearGradient>
<linearGradient id="paint63_linear_7_7289" x1="5.94693" y1="43.0554" x2="40.0473" y2="6.08827" gradientUnits="userSpaceOnUse">
<stop stop-color="#E84ECF"/>
<stop offset="0.347135" stop-color="#483EDA"/>
<stop offset="1" stop-color="#15D8F9"/>
</linearGradient>
<linearGradient id="paint64_linear_7_7289" x1="5.94693" y1="43.0554" x2="40.0473" y2="6.08827" gradientUnits="userSpaceOnUse">
<stop stop-color="#E84ECF"/>
<stop offset="0.347135" stop-color="#483EDA"/>
<stop offset="1" stop-color="#15D8F9"/>
</linearGradient>
<linearGradient id="paint65_linear_7_7289" x1="5.94693" y1="43.0554" x2="40.0473" y2="6.08827" gradientUnits="userSpaceOnUse">
<stop stop-color="#E84ECF"/>
<stop offset="0.347135" stop-color="#483EDA"/>
<stop offset="1" stop-color="#15D8F9"/>
</linearGradient>
<linearGradient id="paint66_linear_7_7289" x1="5.94693" y1="43.0554" x2="40.0473" y2="6.08827" gradientUnits="userSpaceOnUse">
<stop stop-color="#E84ECF"/>
<stop offset="0.347135" stop-color="#483EDA"/>
<stop offset="1" stop-color="#15D8F9"/>
</linearGradient>
<linearGradient id="paint67_linear_7_7289" x1="5.94693" y1="43.0554" x2="40.0473" y2="6.08827" gradientUnits="userSpaceOnUse">
<stop stop-color="#E84ECF"/>
<stop offset="0.347135" stop-color="#483EDA"/>
<stop offset="1" stop-color="#15D8F9"/>
</linearGradient>
<linearGradient id="paint68_linear_7_7289" x1="5.94693" y1="43.0554" x2="40.0473" y2="6.08827" gradientUnits="userSpaceOnUse">
<stop stop-color="#E84ECF"/>
<stop offset="0.347135" stop-color="#483EDA"/>
<stop offset="1" stop-color="#15D8F9"/>
</linearGradient>
<linearGradient id="paint69_linear_7_7289" x1="5.94693" y1="43.0554" x2="40.0473" y2="6.08827" gradientUnits="userSpaceOnUse">
<stop stop-color="#E84ECF"/>
<stop offset="0.347135" stop-color="#483EDA"/>
<stop offset="1" stop-color="#15D8F9"/>
</linearGradient>
<linearGradient id="paint70_linear_7_7289" x1="5.94693" y1="43.0554" x2="40.0473" y2="6.08827" gradientUnits="userSpaceOnUse">
<stop stop-color="#E84ECF"/>
<stop offset="0.347135" stop-color="#483EDA"/>
<stop offset="1" stop-color="#15D8F9"/>
</linearGradient>
<linearGradient id="paint71_linear_7_7289" x1="21.1062" y1="18.6875" x2="56.8225" y2="13.6295" gradientUnits="userSpaceOnUse">
<stop stop-color="#E84ECF"/>
<stop offset="0.347135" stop-color="#483EDA"/>
<stop offset="1" stop-color="#15D8F9"/>
</linearGradient>
<linearGradient id="paint72_linear_7_7289" x1="21.1062" y1="18.6875" x2="56.8225" y2="13.6295" gradientUnits="userSpaceOnUse">
<stop stop-color="#E84ECF"/>
<stop offset="0.347135" stop-color="#483EDA"/>
<stop offset="1" stop-color="#15D8F9"/>
</linearGradient>
<linearGradient id="paint73_linear_7_7289" x1="21.1062" y1="18.6875" x2="56.8225" y2="13.6295" gradientUnits="userSpaceOnUse">
<stop stop-color="#E84ECF"/>
<stop offset="0.347135" stop-color="#483EDA"/>
<stop offset="1" stop-color="#15D8F9"/>
</linearGradient>
<linearGradient id="paint74_linear_7_7289" x1="21.1062" y1="18.6875" x2="56.8225" y2="13.6295" gradientUnits="userSpaceOnUse">
<stop stop-color="#E84ECF"/>
<stop offset="0.347135" stop-color="#483EDA"/>
<stop offset="1" stop-color="#15D8F9"/>
</linearGradient>
<linearGradient id="paint75_linear_7_7289" x1="33.7055" y1="57.1997" x2="42.2419" y2="26.8582" gradientUnits="userSpaceOnUse">
<stop stop-color="white"/>
<stop offset="0.135417" stop-color="#E84ECF"/>
<stop offset="0.484375" stop-color="#483EDA"/>
<stop offset="0.822917" stop-color="#15D8F9"/>
<stop offset="1" stop-color="white"/>
</linearGradient>
<linearGradient id="paint76_linear_7_7289" x1="33.7055" y1="57.1997" x2="42.2419" y2="26.8582" gradientUnits="userSpaceOnUse">
<stop stop-color="white"/>
<stop offset="0.135417" stop-color="#E84ECF"/>
<stop offset="0.484375" stop-color="#483EDA"/>
<stop offset="0.822917" stop-color="#15D8F9"/>
<stop offset="1" stop-color="white"/>
</linearGradient>
<linearGradient id="paint77_linear_7_7289" x1="33.7055" y1="57.1997" x2="42.2419" y2="26.8582" gradientUnits="userSpaceOnUse">
<stop stop-color="white"/>
<stop offset="0.135417" stop-color="#E84ECF"/>
<stop offset="0.484375" stop-color="#483EDA"/>
<stop offset="0.822917" stop-color="#15D8F9"/>
<stop offset="1" stop-color="white"/>
</linearGradient>
<linearGradient id="paint78_linear_7_7289" x1="33.7055" y1="57.1997" x2="42.2419" y2="26.8582" gradientUnits="userSpaceOnUse">
<stop stop-color="white"/>
<stop offset="0.135417" stop-color="#E84ECF"/>
<stop offset="0.484375" stop-color="#483EDA"/>
<stop offset="0.822917" stop-color="#15D8F9"/>
<stop offset="1" stop-color="white"/>
</linearGradient>
</defs>
</svg>
